<?xml version="1.0" encoding="UTF-8"?>
<svg xmlns="http://www.w3.org/2000/svg" xmlns:xlink="http://www.w3.org/1999/xlink" width="216px" height="150px" viewBox="0 0 217 150" version="1.1">
<g id="surface1">
<path style=" stroke:none;fill-rule:nonzero;fill:rgb(69.803923%,13.333334%,20.392157%);fill-opacity:1;" d="M 12.570312 0 L 204.390625 0 C 210.910156 0 216.222656 5.3125 216.222656 11.835938 L 216.222656 138.125 C 216.222656 144.648438 210.910156 149.960938 204.390625 149.960938 L 12.570312 149.960938 C 6.050781 150 0.738281 144.6875 0.738281 138.164062 L 0.738281 11.835938 C 0.738281 5.3125 6.050781 0 12.570312 0 Z M 12.570312 0 "/>
<path style=" stroke:none;fill-rule:nonzero;fill:rgb(100%,100%,100%);fill-opacity:1;" d="M 0.816406 10.664062 L 216.222656 10.664062 C 216.261719 11.054688 216.300781 11.445312 216.300781 11.875 L 216.300781 23.359375 L 0.738281 23.359375 L 0.738281 11.835938 C 0.738281 11.445312 0.777344 11.054688 0.816406 10.664062 Z M 216.261719 33.867188 L 216.261719 46.523438 L 0.738281 46.523438 L 0.738281 33.867188 Z M 216.261719 57.070312 L 216.261719 69.726562 L 0.738281 69.726562 L 0.738281 57.070312 Z M 216.261719 80.273438 L 216.261719 92.929688 L 0.738281 92.929688 L 0.738281 80.273438 Z M 216.261719 103.476562 L 216.261719 116.132812 L 0.738281 116.132812 L 0.738281 103.476562 Z M 216.261719 126.679688 L 216.261719 138.125 C 216.261719 138.515625 216.222656 138.945312 216.183594 139.335938 L 0.816406 139.335938 C 0.777344 138.984375 0.738281 138.554688 0.738281 138.164062 L 0.738281 126.71875 L 216.261719 126.71875 Z M 216.261719 126.679688 "/>
<path style=" stroke:none;fill-rule:nonzero;fill:rgb(23.529412%,23.137255%,43.137255%);fill-opacity:1;" d="M 81.949219 0 L 81.949219 80.78125 L 0.738281 80.78125 L 0.738281 11.835938 C 0.738281 5.3125 6.050781 0 12.570312 0 Z M 81.949219 0 "/>
<path style=" stroke:none;fill-rule:nonzero;fill:rgb(100%,100%,100%);fill-opacity:1;" d="M 5.542969 11.171875 L 8.234375 19.570312 L 1.128906 14.375 L 9.953125 14.375 L 2.808594 19.570312 Z M 5.542969 11.171875 "/>
<path style=" stroke:none;fill-rule:nonzero;fill:rgb(100%,100%,100%);fill-opacity:1;" d="M 5.542969 27.421875 L 8.234375 35.820312 L 1.128906 30.625 L 9.953125 30.625 L 2.808594 35.820312 Z M 5.542969 27.421875 "/>
<path style=" stroke:none;fill-rule:nonzero;fill:rgb(100%,100%,100%);fill-opacity:1;" d="M 5.542969 43.671875 L 8.234375 52.070312 L 1.128906 46.875 L 9.953125 46.875 L 2.808594 52.070312 Z M 5.542969 43.671875 "/>
<path style=" stroke:none;fill-rule:nonzero;fill:rgb(100%,100%,100%);fill-opacity:1;" d="M 5.542969 59.921875 L 8.234375 68.320312 L 1.128906 63.125 L 9.953125 63.125 L 2.808594 68.320312 Z M 5.542969 59.921875 "/>
<path style=" stroke:none;fill-rule:nonzero;fill:rgb(100%,100%,100%);fill-opacity:1;" d="M 15.070312 3.046875 L 17.800781 11.445312 L 10.65625 6.25 L 19.519531 6.25 L 12.335938 11.445312 Z M 15.070312 3.046875 "/>
<path style=" stroke:none;fill-rule:nonzero;fill:rgb(100%,100%,100%);fill-opacity:1;" d="M 15.070312 19.296875 L 17.800781 27.695312 L 10.65625 22.5 L 19.519531 22.5 L 12.335938 27.695312 Z M 15.070312 19.296875 "/>
<path style=" stroke:none;fill-rule:nonzero;fill:rgb(100%,100%,100%);fill-opacity:1;" d="M 15.070312 35.546875 L 17.800781 43.945312 L 10.65625 38.75 L 19.519531 38.75 L 12.335938 43.945312 Z M 15.070312 35.546875 "/>
<path style=" stroke:none;fill-rule:nonzero;fill:rgb(100%,100%,100%);fill-opacity:1;" d="M 15.070312 51.796875 L 17.800781 60.195312 L 10.65625 55 L 19.519531 55 L 12.335938 60.195312 Z M 15.070312 51.796875 "/>
<path style=" stroke:none;fill-rule:nonzero;fill:rgb(100%,100%,100%);fill-opacity:1;" d="M 15.070312 68.046875 L 17.800781 76.445312 L 10.65625 71.25 L 19.519531 71.25 L 12.335938 76.445312 Z M 15.070312 68.046875 "/>
<path style=" stroke:none;fill-rule:nonzero;fill:rgb(100%,100%,100%);fill-opacity:1;" d="M 24.632812 11.171875 L 27.367188 19.570312 L 20.222656 14.375 L 29.046875 14.375 L 21.902344 19.570312 Z M 24.632812 11.171875 "/>
<path style=" stroke:none;fill-rule:nonzero;fill:rgb(100%,100%,100%);fill-opacity:1;" d="M 24.632812 27.421875 L 27.367188 35.820312 L 20.222656 30.625 L 29.046875 30.625 L 21.902344 35.820312 Z M 24.632812 27.421875 "/>
<path style=" stroke:none;fill-rule:nonzero;fill:rgb(100%,100%,100%);fill-opacity:1;" d="M 24.632812 43.671875 L 27.367188 52.070312 L 20.222656 46.875 L 29.046875 46.875 L 21.902344 52.070312 Z M 24.632812 43.671875 "/>
<path style=" stroke:none;fill-rule:nonzero;fill:rgb(100%,100%,100%);fill-opacity:1;" d="M 24.632812 59.921875 L 27.367188 68.320312 L 20.222656 63.125 L 29.046875 63.125 L 21.902344 68.320312 Z M 24.632812 59.921875 "/>
<path style=" stroke:none;fill-rule:nonzero;fill:rgb(100%,100%,100%);fill-opacity:1;" d="M 34.199219 3.046875 L 36.894531 11.445312 L 29.789062 6.25 L 38.613281 6.25 L 31.46875 11.445312 Z M 34.199219 3.046875 "/>
<path style=" stroke:none;fill-rule:nonzero;fill:rgb(100%,100%,100%);fill-opacity:1;" d="M 34.199219 19.296875 L 36.894531 27.695312 L 29.789062 22.5 L 38.613281 22.5 L 31.46875 27.695312 Z M 34.199219 19.296875 "/>
<path style=" stroke:none;fill-rule:nonzero;fill:rgb(100%,100%,100%);fill-opacity:1;" d="M 34.199219 35.546875 L 36.894531 43.945312 L 29.789062 38.75 L 38.613281 38.75 L 31.46875 43.945312 Z M 34.199219 35.546875 "/>
<path style=" stroke:none;fill-rule:nonzero;fill:rgb(100%,100%,100%);fill-opacity:1;" d="M 34.199219 51.796875 L 36.894531 60.195312 L 29.789062 55 L 38.613281 55 L 31.46875 60.195312 Z M 34.199219 51.796875 "/>
<path style=" stroke:none;fill-rule:nonzero;fill:rgb(100%,100%,100%);fill-opacity:1;" d="M 34.199219 68.046875 L 36.894531 76.445312 L 29.789062 71.25 L 38.613281 71.25 L 31.46875 76.445312 Z M 34.199219 68.046875 "/>
<path style=" stroke:none;fill-rule:nonzero;fill:rgb(100%,100%,100%);fill-opacity:1;" d="M 43.726562 11.171875 L 46.460938 19.570312 L 39.316406 14.375 L 48.136719 14.375 L 40.992188 19.570312 Z M 43.726562 11.171875 "/>
<path style=" stroke:none;fill-rule:nonzero;fill:rgb(100%,100%,100%);fill-opacity:1;" d="M 43.726562 27.421875 L 46.460938 35.820312 L 39.316406 30.625 L 48.136719 30.625 L 40.992188 35.820312 Z M 43.726562 27.421875 "/>
<path style=" stroke:none;fill-rule:nonzero;fill:rgb(100%,100%,100%);fill-opacity:1;" d="M 43.726562 43.671875 L 46.460938 52.070312 L 39.316406 46.875 L 48.136719 46.875 L 40.992188 52.070312 Z M 43.726562 43.671875 "/>
<path style=" stroke:none;fill-rule:nonzero;fill:rgb(100%,100%,100%);fill-opacity:1;" d="M 43.726562 59.921875 L 46.460938 68.320312 L 39.316406 63.125 L 48.136719 63.125 L 40.992188 68.320312 Z M 43.726562 59.921875 "/>
<path style=" stroke:none;fill-rule:nonzero;fill:rgb(100%,100%,100%);fill-opacity:1;" d="M 53.292969 3.046875 L 56.027344 11.445312 L 48.878906 6.25 L 57.703125 6.25 L 50.558594 11.445312 Z M 53.292969 3.046875 "/>
<path style=" stroke:none;fill-rule:nonzero;fill:rgb(100%,100%,100%);fill-opacity:1;" d="M 53.292969 19.296875 L 56.027344 27.695312 L 48.878906 22.5 L 57.703125 22.5 L 50.558594 27.695312 Z M 53.292969 19.296875 "/>
<path style=" stroke:none;fill-rule:nonzero;fill:rgb(100%,100%,100%);fill-opacity:1;" d="M 53.292969 35.546875 L 56.027344 43.945312 L 48.878906 38.75 L 57.703125 38.75 L 50.558594 43.945312 Z M 53.292969 35.546875 "/>
<path style=" stroke:none;fill-rule:nonzero;fill:rgb(100%,100%,100%);fill-opacity:1;" d="M 53.292969 51.796875 L 56.027344 60.195312 L 48.878906 55 L 57.703125 55 L 50.558594 60.195312 Z M 53.292969 51.796875 "/>
<path style=" stroke:none;fill-rule:nonzero;fill:rgb(100%,100%,100%);fill-opacity:1;" d="M 53.292969 68.046875 L 56.027344 76.445312 L 48.878906 71.25 L 57.703125 71.25 L 50.558594 76.445312 Z M 53.292969 68.046875 "/>
<path style=" stroke:none;fill-rule:nonzero;fill:rgb(100%,100%,100%);fill-opacity:1;" d="M 62.820312 11.171875 L 65.550781 19.570312 L 58.40625 14.375 L 67.230469 14.375 L 60.125 19.570312 Z M 62.820312 11.171875 "/>
<path style=" stroke:none;fill-rule:nonzero;fill:rgb(100%,100%,100%);fill-opacity:1;" d="M 62.820312 27.421875 L 65.550781 35.820312 L 58.40625 30.625 L 67.230469 30.625 L 60.125 35.820312 Z M 62.820312 27.421875 "/>
<path style=" stroke:none;fill-rule:nonzero;fill:rgb(100%,100%,100%);fill-opacity:1;" d="M 62.820312 43.671875 L 65.550781 52.070312 L 58.40625 46.875 L 67.230469 46.875 L 60.125 52.070312 Z M 62.820312 43.671875 "/>
<path style=" stroke:none;fill-rule:nonzero;fill:rgb(100%,100%,100%);fill-opacity:1;" d="M 62.820312 59.921875 L 65.550781 68.320312 L 58.40625 63.125 L 67.230469 63.125 L 60.125 68.320312 Z M 62.820312 59.921875 "/>
<path style=" stroke:none;fill-rule:nonzero;fill:rgb(100%,100%,100%);fill-opacity:1;" d="M 72.382812 3.046875 L 75.117188 11.445312 L 67.972656 6.25 L 76.796875 6.25 L 69.652344 11.445312 Z M 72.382812 3.046875 "/>
<path style=" stroke:none;fill-rule:nonzero;fill:rgb(100%,100%,100%);fill-opacity:1;" d="M 72.382812 19.296875 L 75.117188 27.695312 L 67.972656 22.5 L 76.796875 22.5 L 69.652344 27.695312 Z M 72.382812 19.296875 "/>
<path style=" stroke:none;fill-rule:nonzero;fill:rgb(100%,100%,100%);fill-opacity:1;" d="M 72.382812 35.546875 L 75.117188 43.945312 L 67.972656 38.75 L 76.796875 38.75 L 69.652344 43.945312 Z M 72.382812 35.546875 "/>
<path style=" stroke:none;fill-rule:nonzero;fill:rgb(100%,100%,100%);fill-opacity:1;" d="M 72.382812 51.796875 L 75.117188 60.195312 L 67.972656 55 L 76.796875 55 L 69.652344 60.195312 Z M 72.382812 51.796875 "/>
<path style=" stroke:none;fill-rule:nonzero;fill:rgb(100%,100%,100%);fill-opacity:1;" d="M 72.382812 68.046875 L 75.117188 76.445312 L 67.972656 71.25 L 76.796875 71.25 L 69.652344 76.445312 Z M 72.382812 68.046875 "/>
</g>
</svg>
