<?xml version="1.0" encoding="UTF-8"?>
<svg xmlns="http://www.w3.org/2000/svg" xmlns:xlink="http://www.w3.org/1999/xlink" width="216px" height="150px" viewBox="0 0 217 150" version="1.1">
<g id="surface1">
<path style=" stroke:none;fill-rule:nonzero;fill:rgb(85.490197%,14.509805%,11.372549%);fill-opacity:1;" d="M 12.492188 0 L 204.46875 0 C 210.949219 0.0390625 216.222656 5.351562 216.222656 11.835938 L 216.222656 138.125 C 216.222656 144.609375 210.949219 149.921875 204.46875 149.960938 L 12.492188 149.960938 C 6.011719 149.960938 0.738281 144.648438 0.738281 138.164062 L 0.738281 11.835938 C 0.738281 5.351562 6.011719 0.0390625 12.492188 0 Z M 12.492188 0 "/>
<path style=" stroke:none;fill-rule:nonzero;fill:rgb(100%,100%,0%);fill-opacity:1;" d="M 108.5 45 L 99.246094 73.515625 L 118.261719 79.6875 Z M 108.5 45 Z M 108.5 45 "/>
<path style=" stroke:none;fill-rule:nonzero;fill:rgb(100%,100%,0%);fill-opacity:1;" d="M 108.5 45 L 117.753906 73.515625 L 98.738281 79.6875 Z M 108.5 45 Z M 108.5 45 "/>
<path style=" stroke:none;fill-rule:nonzero;fill:rgb(100%,100%,0%);fill-opacity:1;" d="M 137 65.742188 L 107.015625 65.742188 L 107.015625 85.742188 Z M 137 65.742188 Z M 137 65.742188 "/>
<path style=" stroke:none;fill-rule:nonzero;fill:rgb(100%,100%,0%);fill-opacity:1;" d="M 137 65.742188 L 112.753906 83.359375 L 101.003906 67.1875 Z M 137 65.742188 Z M 137 65.742188 "/>
<path style=" stroke:none;fill-rule:nonzero;fill:rgb(100%,100%,0%);fill-opacity:1;" d="M 126.109375 99.257812 L 116.855469 70.742188 L 97.839844 76.914062 Z M 126.109375 99.257812 Z M 126.109375 99.257812 "/>
<path style=" stroke:none;fill-rule:nonzero;fill:rgb(100%,100%,0%);fill-opacity:1;" d="M 126.109375 99.257812 L 101.863281 81.640625 L 113.613281 65.46875 Z M 126.109375 99.257812 Z M 126.109375 99.257812 "/>
<path style=" stroke:none;fill-rule:nonzero;fill:rgb(100%,100%,0%);fill-opacity:1;" d="M 80 65.742188 L 109.984375 65.742188 L 109.984375 85.742188 Z M 80 65.742188 Z M 80 65.742188 "/>
<path style=" stroke:none;fill-rule:nonzero;fill:rgb(100%,100%,0%);fill-opacity:1;" d="M 80 65.742188 L 104.246094 83.359375 L 115.996094 67.1875 Z M 80 65.742188 Z M 80 65.742188 "/>
<path style=" stroke:none;fill-rule:nonzero;fill:rgb(100%,100%,0%);fill-opacity:1;" d="M 90.890625 99.257812 L 100.144531 70.742188 L 119.160156 76.914062 Z M 90.890625 99.257812 Z M 90.890625 99.257812 "/>
<path style=" stroke:none;fill-rule:nonzero;fill:rgb(100%,100%,0%);fill-opacity:1;" d="M 90.890625 99.257812 L 115.136719 81.640625 L 103.386719 65.46875 Z M 90.890625 99.257812 Z M 90.890625 99.257812 "/>
</g>
</svg>
