<?xml version="1.0" standalone="no"?>
<!DOCTYPE svg PUBLIC "-//W3C//DTD SVG 20010904//EN"
 "http://www.w3.org/TR/2001/REC-SVG-20010904/DTD/svg10.dtd">
<svg version="1.0" xmlns="http://www.w3.org/2000/svg"
 width="150.000000pt" height="150.000000pt" viewBox="0 0 150.000000 150.000000"
 preserveAspectRatio="xMidYMid meet">

<g transform="translate(0.000000,150.000000) scale(0.100000,-0.100000)"
fill="#ffffff" stroke="none">
<path d="M645 1491 c-326 -54 -574 -296 -630 -616 -19 -109 -19 -141 0 -250
51 -293 263 -522 556 -601 87 -24 271 -24 358 0 296 80 505 309 557 607 19
109 12 249 -13 274 -27 28 -73 12 -73 -26 0 -9 -16 -48 -35 -86 -43 -87 -112
-153 -203 -196 -63 -30 -74 -32 -177 -32 -103 0 -114 2 -178 32 -89 42 -168
121 -210 210 -30 64 -32 75 -32 178 0 103 2 114 32 177 43 91 109 160 196 203
38 19 78 35 87 35 40 0 52 69 15 84 -28 10 -199 15 -250 7z"/>
</g>
</svg>
