<?xml version="1.0" standalone="no"?>
<!DOCTYPE svg PUBLIC "-//W3C//DTD SVG 20010904//EN"
 "http://www.w3.org/TR/2001/REC-SVG-20010904/DTD/svg10.dtd">
<svg version="1.0" xmlns="http://www.w3.org/2000/svg"
 width="150.000000pt" height="150.000000pt" viewBox="0 0 150.000000 150.000000"
 preserveAspectRatio="xMidYMid meet">

<g transform="translate(0.000000,150.000000) scale(0.100000,-0.100000)"
fill="#000000" stroke="none">
<path d="M720 1480 c-28 -28 -30 -178 -2 -203 24 -22 45 -21 65 1 13 14 17 38
17 100 0 69 -3 85 -20 102 -11 11 -24 20 -30 20 -5 0 -19 -9 -30 -20z"/>
<path d="M222 1278 c-24 -24 -12 -54 51 -116 62 -61 91 -74 115 -50 24 24 12
54 -51 116 -62 61 -91 74 -115 50z"/>
<path d="M1162 1227 c-61 -62 -74 -91 -50 -115 24 -24 54 -12 116 51 61 62 74
91 50 115 -24 24 -54 12 -116 -51z"/>
<path d="M617 1160 c-139 -44 -241 -151 -282 -294 -23 -79 -16 -210 14 -280
91 -209 317 -313 533 -246 278 86 389 434 213 668 -110 146 -304 208 -478 152z
m291 -110 c67 -35 114 -84 153 -160 20 -37 24 -60 24 -135 0 -77 -4 -98 -26
-146 -33 -69 -91 -129 -161 -166 -46 -24 -64 -28 -143 -28 -77 0 -98 4 -146
26 -72 34 -134 96 -168 168 -22 47 -26 70 -26 141 0 71 4 94 26 141 42 88 123
159 219 190 14 5 61 7 105 6 69 -3 89 -8 143 -37z"/>
<path d="M22 784 c-12 -8 -22 -24 -22 -34 0 -34 38 -50 120 -50 82 0 120 16
120 50 0 34 -38 50 -120 50 -52 0 -82 -5 -98 -16z"/>
<path d="M1282 784 c-12 -8 -22 -24 -22 -34 0 -34 38 -50 122 -50 65 0 81 3
98 20 11 11 20 25 20 30 0 6 -9 19 -20 30 -17 17 -33 20 -98 20 -54 0 -84 -5
-100 -16z"/>
<path d="M272 337 c-61 -62 -74 -91 -50 -115 24 -24 54 -12 116 51 61 62 74
91 50 115 -24 24 -54 12 -116 -51z"/>
<path d="M1112 388 c-24 -24 -12 -54 51 -116 62 -61 91 -74 115 -50 24 24 12
54 -51 116 -62 61 -91 74 -115 50z"/>
<path d="M717 222 c-13 -14 -17 -38 -17 -100 0 -69 3 -85 20 -102 25 -25 35
-25 60 0 28 28 30 178 2 203 -24 22 -45 21 -65 -1z"/>
</g>
</svg>
